<svg width="472" height="362" viewBox="0 0 472 362" fill="none" xmlns="http://www.w3.org/2000/svg">
<path fill-rule="evenodd" clip-rule="evenodd" d="M423.467 55.932V111.052L444.438 111.55C455.973 111.825 480.033 112.056 497.905 112.063C537.152 112.081 563.458 113.079 569.288 114.772C578.034 117.311 586.971 122.991 596.243 131.905C603.162 138.557 608.033 145.245 613.799 156.01L617.686 163.267L617.687 196.117C617.687 214.184 617.913 258.338 618.189 294.235L618.69 359.503H674.573H730.454L729.923 261.317L729.393 163.131L648.413 81.9719L567.433 0.8125H495.451H423.467V55.932ZM116.647 58.2378V113.393L181.45 113.805C217.092 114.031 248.992 114.551 252.34 114.959C277.378 118.019 302.281 141.149 308.241 166.882C310.176 175.239 310.84 205.31 310.854 285.154L310.866 361.016H366.033H421.2V262.451V163.885L340.904 83.4838L260.608 3.08269H188.628H116.647V58.2378ZM0 238.804V361H58.19H116.38V238.804V114.322H58.19H0V238.804Z" fill="white"/>
</svg>
